#!OML:ASF H:\Terrain\Patient Classification 1\Animal2\Wednesday\Animal2.ASF
:FULLY-SPECIFIED
:DEGREES
1275
root 24.7722 17.5093 -3.72036 -5.86491 -14.234 3.46959
lowerback -13.2 -0.229957 4.66029
upperback -6.50159 -0.883465 -0.0131186
thorax 0.486411 -0.563028 -2.75635
lowerneck -3.66938 11.4112 17.9468
upperneck 6.69846 16.189 -19.5395
head 5.74523 7.74107 -7.78543
rclavicle 5.96354e-015 7.95139e-016
rhumerus -46.6598 -27.7061 18.6935
rradius 42.6852
rwrist -20.7525
rhand -17.9315 12.8004
rfingers 7.12502
rthumb 8.33646 -17.0151
lclavicle 5.96354e-015 7.95139e-016
lhumerus -40.8619 5.98584 -9.38628
lradius 35.0077
lwrist 50.1543
lhand -26.695 28.7515
lfingers 7.12502
lthumb -0.125498 58.7312
rfemur 11.9703 4.48891 10.5166
rtibia 17.8319
rfoot -25.0436 11.0476
rtoes 25.9075
lfemur 2.52143 0.317568 -17.9582
ltibia 25.1964
lfoot -21.5824 4.49363
ltoes -32.6488
1276
root 24.8055 17.511 -3.71091 -5.88272 -14.4622 3.6155
lowerback -13.1172 -0.272488 4.42918
upperback -6.47887 -0.907576 -0.127736
thorax 0.467466 -0.57207 -2.74789
lowerneck -3.4546 11.4047 17.8799
upperneck 6.18646 16.1498 -19.6341
head 5.54949 7.73551 -7.82478
rclavicle 1.70955e-014 1.19271e-014
rhumerus -45.4756 -27.8078 17.4481
rradius 42.9032
rwrist -20.9458
rhand -17.7742 13.0427
rfingers 7.12502
rthumb 8.48828 -16.7667
lclavicle 1.70955e-014 1.19271e-014
lhumerus -39.9177 5.72216 -8.70232
lradius 36.1798
lwrist 50.8605
lhand -26.5394 28.8788
lfingers 7.12502
lthumb 0.0248211 58.8586
rfemur 11.8276 4.13189 10.1076
rtibia 17.8747
rfoot -24.6626 11.3145
rtoes 25.3358
lfemur 2.49656 0.438914 -18.2286
ltibia 25.2449
lfoot -21.632 4.26317
ltoes -31.0742
1277
root 24.8365 17.5161 -3.70297 -5.66981 -14.7461 3.30997
lowerback -13.1168 -0.260732 4.63604
upperback -6.49896 -0.915694 -0.157172
thorax 0.439708 -0.582561 -2.8961
lowerneck -3.56804 11.3905 18.0935
upperneck 6.15064 16.1247 -19.8996
head 5.59763 7.71245 -7.94464
rclavicle -3.29983e-014 -1.90833e-014
rhumerus -44.4623 -27.8883 16.2132
rradius 43.158
rwrist -20.8832
rhand -17.6208 13.1046
rfingers 7.12502
rthumb 8.63631 -16.6988
lclavicle -3.29983e-014 -1.90833e-014
lhumerus -38.8812 5.70002 -8.16535
lradius 37.1775
lwrist 51.4814
lhand -26.5661 28.4223
lfingers 7.12502
lthumb -0.000991402 58.4021
rfemur 11.5644 3.90161 10.2462
rtibia 17.9316
rfoot -24.5064 11.2082
rtoes 24.2532
lfemur 2.38297 0.702734 -17.9768
ltibia 25.2931
lfoot -21.6628 4.22998
ltoes -31.0378
1278
root 24.8669 17.5245 -3.69883 -5.46425 -15.1693 2.89081
lowerback -13.0201 -0.196823 4.88786
upperback -6.45778 -0.857595 -0.115199
thorax 0.430737 -0.558122 -2.98561
lowerneck -3.80099 11.3693 18.3971
upperneck 6.04112 16.073 -20.3273
head 5.66291 7.6669 -8.13145
rclavicle 7.95139e-016 -4.77083e-015
rhumerus -43.6236 -28.1983 15.1545
rradius 43.3495
rwrist -20.6533
rhand -17.5918 13.3283
rfingers 7.12502
rthumb 8.6643 -16.4739
lclavicle 7.95139e-016 -4.77083e-015
lhumerus -37.8211 5.6283 -7.4007
lradius 38.2284
lwrist 52.3668
lhand -26.9148 28.2939
lfingers 7.12502
lthumb -0.337775 58.2734
rfemur 11.3002 3.97323 10.5914
rtibia 17.9708
rfoot -24.4492 10.914
rtoes 23.5046
lfemur 2.31999 0.928115 -17.625
ltibia 25.3369
lfoot -21.6548 4.39258
ltoes -31.3728
1279
root 24.8932 17.5314 -3.69528 -5.41334 -15.7332 2.74222
lowerback -12.7527 -0.150795 4.82392
upperback -6.52529 -0.776333 -0.0607751
thorax 0.225744 -0.522356 -2.87769
lowerneck -3.53784 11.3118 18.4459
upperneck 5.6807 15.9972 -20.5162
head 5.51635 7.64519 -8.22908
rclavicle 7.15625e-015 2.38542e-015
rhumerus -42.5617 -28.3107 13.9465
rradius 43.4526
rwrist -20.6033
rhand -17.3504 13.7263
rfingers 7.12502
rthumb 8.89721 -16.0662
lclavicle 7.15625e-015 2.38542e-015
lhumerus -37.0147 5.42699 -6.61043
lradius 39.3007
lwrist 52.8234
lhand -26.7411 28.595
lfingers 7.12502
lthumb -0.17003 58.5747
rfemur 11.0844 4.10105 10.6382
rtibia 17.9218
rfoot -24.2956 10.8119
rtoes 22.4167
lfemur 2.35266 1.14275 -17.5811
ltibia 25.3938
lfoot -21.6649 4.82518
ltoes -31.8138
1280
root 24.9192 17.5409 -3.69244 -5.34912 -16.0442 2.51794
lowerback -12.5078 -0.211239 4.82789
upperback -6.62268 -0.842457 -0.0120022
thorax -0.0131326 -0.56282 -2.83239
lowerneck -3.10243 11.2434 18.3207
upperneck 5.25133 15.9093 -20.5156
head 5.28399 7.63128 -8.24665
rclavicle -1.98785e-014 7.95139e-015
rhumerus -41.3925 -28.1451 12.457
rradius 43.5829
rwrist -20.6404
rhand -17.3031 13.9195
rfingers 7.12502
rthumb 8.94288 -15.871
lclavicle -1.98785e-014 7.95139e-015
lhumerus -36.3117 5.52541 -5.97723
lradius 40.1347
lwrist 52.6937
lhand -26.2773 28.3509
lfingers 7.12502
lthumb 0.27794 58.3305
rfemur 10.9026 4.1029 10.7962
rtibia 17.9438
rfoot -24.1867 10.694
rtoes 21.6441
lfemur 2.39487 1.2026 -17.4504
ltibia 25.3738
lfoot -21.6325 5.20452
ltoes -32.3698
1281
root 24.9493 17.5469 -3.69201 -5.36391 -16.2032 2.30495
lowerback -12.2115 -0.286289 4.86749
upperback -6.64669 -0.928327 -0.0279823
thorax -0.206447 -0.612115 -2.87642
lowerneck -3.02353 11.1531 18.358
upperneck 5.13409 15.7908 -20.6727
head 5.22986 7.57567 -8.32767
rclavicle -4.13472e-014 -2.62396e-014
rhumerus -40.5139 -27.9187 11.0312
rradius 43.7995
rwrist -20.62
rhand -17.6506 14.1287
rfingers 7.12502
rthumb 8.60749 -15.6758
lclavicle -4.13472e-014 -2.62396e-014
lhumerus -35.4683 5.5605 -5.22893
lradius 40.8909
lwrist 52.8626
lhand -26.021 28.1817
lfingers 7.12502
lthumb 0.525453 58.1608
rfemur 10.8483 4.1172 10.9548
rtibia 18.0366
rfoot -23.9579 10.7133
rtoes 21.896
lfemur 2.52661 1.14363 -17.341
ltibia 25.2944
lfoot -21.5848 5.14016
ltoes -31.6904
1282
root 24.9823 17.5451 -3.6946 -5.58271 -16.4629 2.5184
lowerback -11.8084 -0.344244 4.51685
upperback -6.60843 -0.947297 -0.158809
thorax -0.37857 -0.617985 -2.8113
lowerneck -3.27218 11.1342 18.4826
upperneck 5.28836 15.7519 -20.7798
head 5.33199 7.53854 -8.37566
rclavicle 5.84427e-014 5.56597e-015
rhumerus -39.732 -27.9583 9.65525
rradius 43.9209
rwrist -20.6531
rhand -17.7875 14.4629
rfingers 7.12502
rthumb 8.4754 -15.347
lclavicle 5.84427e-014 5.56597e-015
lhumerus -34.7019 5.20064 -4.33832
lradius 41.8694
lwrist 53.8826
lhand -26.1956 28.367
lfingers 7.12502
lthumb 0.356816 58.3465
rfemur 10.8839 4.27979 10.6151
rtibia 18.0931
rfoot -23.5163 11.1789
rtoes 23.2074
lfemur 2.76078 1.02428 -17.7546
ltibia 25.2283
lfoot -21.5704 5.40075
ltoes -31.2231
1283
root 25.0137 17.5507 -3.69744 -5.68524 -16.7982 2.72783
lowerback -11.608 -0.398298 4.11484
upperback -6.49162 -0.971068 -0.236186
thorax -0.357161 -0.617972 -2.66607
lowerneck -3.49896 11.1209 18.372
upperneck 5.22998 15.6884 -20.7609
head 5.33038 7.49241 -8.34809
rclavicle -6.16232e-015 1.11319e-014
rhumerus -38.8146 -28.1713 8.1292
rradius 43.9247
rwrist -20.5946
rhand -17.7209 14.8273
rfingers 7.12502
rthumb 8.53966 -14.98
lclavicle -6.16232e-015 1.11319e-014
lhumerus -34.1466 4.92729 -3.43536
lradius 42.8522
lwrist 54.9797
lhand -26.5029 28.1238
lfingers 7.12502
lthumb 0.0600087 58.1035
rfemur 10.7684 4.57494 10.2919
rtibia 18.1213
rfoot -23.0311 11.6826
rtoes 24.7707
lfemur 2.83599 0.766168 -18.2253
ltibia 25.1982
lfoot -21.466 6.16149
ltoes -31.4129
1284
root 25.0395 17.563 -3.69778 -5.5948 -17.2348 2.53249
lowerback -11.4598 -0.425691 4.06877
upperback -6.47799 -0.997978 -0.152503
thorax -0.421917 -0.630144 -2.55356
lowerneck -3.26923 10.9931 18.2341
upperneck 4.93968 15.5208 -20.899
head 5.17209 7.42158 -8.41006
rclavicle -2.44505e-014 1.59028e-014
rhumerus -37.816 -28.5047 6.57154
rradius 43.8237
rwrist -20.0446
rhand -16.3793 15.6462
rfingers 7.12502
rthumb 9.83427 -14.1041
lclavicle -2.44505e-014 1.59028e-014
lhumerus -33.6852 4.83167 -2.56642
lradius 43.5467
lwrist 55.2778
lhand -26.2409 27.7375
lfingers 7.12502
lthumb 0.313077 57.717
rfemur 10.5115 4.60206 10.3381
rtibia 18.1573
rfoot -22.6726 11.9224
rtoes 24.7587
lfemur 2.8399 0.554317 -18.227
ltibia 25.1787
lfoot -21.3978 6.60349
ltoes -30.548
